<svg xmlns="http://www.w3.org/2000/svg" fill="url(#a)" height="242" width="524"><linearGradient id="a" gradientUnits="userSpaceOnUse" x1="262.663" y1="240.038" x2="262.663" y2="2.375"><stop offset="0" stop-color="#0f3f93"/><stop offset=".217" stop-color="#1968a1"/><stop offset=".439" stop-color="#228aad"/><stop offset=".65" stop-color="#28a3b5"/><stop offset=".843" stop-color="#2cb2ba"/><stop offset="1" stop-color="#2db7bc"/></linearGradient><path d="M324.288 201.863c4.854-1.814 11.812-2.43 16.122-2.43v-4.783c0-6.666-3.478-7.826-9.638-7.826-4.203 0-9.958 1.959-12.135 3.514l-1.484-3.982c1.408-.944 8.478-4.129 15.176-4.129 8.405 0 14.095 2.318 14.095 12.681v29.812h-2.463c-2.104 0-3.187-.183-3.187-2.897l-.04-1.521c-2.242 2.026-6.918 4.418-12.786 4.418-7.315 0-12.568-4.312-12.568-11.486 0-5.433 3.153-9.238 8.908-11.371zm5.433 18.324c5.184 0 9.746-2.569 10.689-3.584v-13.295c-2.972 0-9.273.469-12.786 1.922-4.134 1.561-6.271 3.879-6.271 7.533 0 4.348 2.43 7.424 8.368 7.424zm29.847-37.309h5.142l.365 5.507c1.668-2.172 7.207-6.121 12.569-6.121 1.884 0 3.224.183 3.914.471v5.689c-.69-.365-1.996-.837-5.004-.837-4.778 0-8.871 2.716-10.941 4.784v31.768h-6.045zm31.912 4.526h-5.765v-3.292c2.685-.798 5.688-.907 6.34-2.647.472-1.23 1.05-5.613 1.817-8.037h3.614v9.414h12.826v4.562h-12.826v23.551c0 8.186 1.412 8.906 5.51 8.906 2.466 0 6.373-1.122 7.752-2.061l1.05 3.51c-2.101 1.705-7.137 3.408-10.902 3.408-5.069 0-9.416-1.521-9.416-10.361zm28.25-18.435h6.117l-.033 30.392c0 16.014 5.543 20.541 14.85 20.541 8.729 0 14.02-4.745 14.02-20.576v-30.322h6.09v31.771c0 15.902-6.738 23.945-20.285 23.945-14.562 0-20.796-8.406-20.757-23.906zm59.976 60.207v13.291h-6.008v-59.625h5.433l.032 4.819c1.962-1.958 5.832-5.397 12.896-5.397 8.473 0 16.301 5.904 16.301 19.885 0 13.188-8.221 22.57-20.684 22.57-3.406 0-6.193-.654-8.078-1.375zm8.517-8.875c7.932 0 13.836-6.307 13.981-17.314.109-10.764-4.347-15.977-11.772-15.977-4.784 0-8.729 2.463-10.726 4.2v27.023c1.343 1.159 4.061 2.068 8.517 2.068zM24.649 170.563c14.838 0 20.796 12.893 20.626 27.817-.201 16.774-9.244 26.339-21.497 26.339-15.086 0-20.88-13.167-20.712-28.051.207-16.815 9.497-26.105 21.584-26.105zm13.585 27.496c.044-12.106-4.247-21.814-13.712-21.904-8.961-.147-14.326 7.437-14.376 20.601-.036 12.016 4.125 22.326 13.795 22.458 9.04.142 14.256-7.992 14.293-21.156zm35.319-15.795c4.856 0 8.59 1.16 10.035 2.138l-1.049 4.78c-2.033-1.483-5.435-2.244-9.312-2.244-6.772 0-13.01 5.178-13.295 15.976-.293 11.558 5.867 17.241 12.895 17.241 4.779 0 8.66-1.702 10.437-2.859l1.271 3.475c-2.61 2.394-7.394 3.951-12.611 3.951-11.372 0-17.857-8.84-17.857-20.611-.038-12.504 6.882-21.847 19.486-21.847zm35.601 0c8.734-.108 14.565 6.086 14.818 15.506 0 2.643 0 4.637-.326 6.339H96.553c0 .468 0 .975.033 1.448.358 10.614 5.979 14.598 13.623 14.598 3.729 0 9.052-1.34 11.225-2.751l1.163 3.514c-2.721 2.245-8.845 3.804-13.948 3.804-11.59 0-18.002-7.826-18.002-21.047 0-12.427 6.628-21.265 18.507-21.411zm9.131 17.785c.438-7.568-1.993-13.475-9.491-13.475-6.121 0-10.904 3.949-11.987 13.475zm22.342 1.814c4.856-1.814 11.812-2.43 16.125-2.43v-4.783c0-6.666-3.478-7.826-9.641-7.826-4.2 0-9.96 1.959-12.138 3.514l-1.48-3.982c1.41-.944 8.479-4.129 15.178-4.129 8.402 0 14.095 2.318 14.095 12.681v29.812h-2.463c-2.104 0-3.189-.183-3.189-2.897l-.039-1.521c-2.242 2.026-6.915 4.418-12.785 4.418-7.318 0-12.569-4.312-12.569-11.486-.002-5.433 3.146-9.238 8.906-11.371zm5.439 18.324c5.182 0 9.742-2.569 10.688-3.584v-13.295c-2.978 0-9.274.469-12.787 1.922-4.129 1.561-6.269 3.879-6.269 7.533-.001 4.348 2.427 7.424 8.368 7.424zm30.135-37.309h5.396l.039 5.29c2.93-2.209 9.162-5.832 15.178-5.941 8.982-.144 12.349 4.24 12.349 16.373v25.539h-6.051v-25.576c0-8.186-1.736-11.59-8.799-11.301-3.911.072-8.948 2.573-12.062 5.07v31.807h-6.05zm244.215-170.81l.16-.022-.312.163zM96.225 45.244l-.159-.021.305.163zm331.711-33.756l.314-.17-.165.024-.149.145zM468.621.565c-17.392.344-28.542 4.433-40.371 10.753 11.684-1.625 21.656-3.847 40.141-3.944 7.354-.036 14.037.088 19.93.335l-3.901 8.948a744.83 744.83 0 0 1-19.724.569c-22.531.365-49.693-4.85-76.979-6.49l-.574 1.595c-.08-.012-.141-.019-.141-.019l-6.517 18.793s16.788-12.101 34.843-14.831c20.613 3.198 41.146 7.729 59.366 7.517 36.842-.423 48.02-11.355 48.02-11.355S504.548-.141 468.621.565zM143.919 64.281l-6.518-18.792-.134.018-.572-1.589c-27.291 1.631-54.451 6.849-76.985 6.484l-19.416-.549-3.911-8.979c5.82-.238 12.4-.359 19.633-.316 18.48.09 28.457 2.315 40.146 3.943-11.83-6.32-22.986-10.418-40.376-10.762-35.927-.704-54.092 11.874-54.092 11.874s11.183 10.929 48.019 11.355c18.22.211 38.751-4.319 59.361-7.517 18.057 2.73 34.845 14.83 34.845 14.83zm92.986 160.125h50.76l-.227-28.477c1.275-147.625 41.256-180.2 88.947-182.561l1.334-3.043C326.058 9.138 275.909 24.85 257.91 119.838c-22.483-65.613-66.278-77.37-111.226-76.34l1.332 3.047c47.187 2.335 86.807 34.255 88.889 177.862z"/></svg>