<svg
  xmlns="http://www.w3.org/2000/svg"
  viewBox="0 0 299 224"
  fill="currentColor"
>
  <path
    d="M420.416 12.069l.16-.021-.312.163.152-.142zM96.226 45.244l-.16-.02.305.163-.145-.143zm331.71-33.756l.314-.17-.165.025-.149.145zM468.621.565C451.23.91 440.08 4.998 428.251 11.32c11.683-1.625 21.655-3.847 40.14-3.944 7.354-.036 14.037.087 19.93.335l-3.9 8.948-19.725.569c-22.53.364-49.693-4.85-76.979-6.49l-.574 1.594-.14-.019-6.518 18.794s16.788-12.102 34.843-14.832c20.613 3.198 41.146 7.73 59.366 7.517 36.842-.423 48.02-11.355 48.02-11.355S504.548-.141 468.621.566V.565zM143.92 64.281l-6.518-18.792-.134.018-.572-1.589c-27.29 1.63-54.45 6.85-76.985 6.484l-19.416-.55-3.91-8.978c5.82-.239 12.4-.36 19.632-.317 18.48.09 28.457 2.316 40.146 3.943-11.83-6.32-22.986-10.418-40.376-10.762C19.86 33.035 1.694 45.613 1.694 45.613s11.183 10.928 48.02 11.355c18.22.211 38.75-4.319 59.36-7.517 18.057 2.73 34.845 14.83 34.845 14.83h.001zm92.986 160.126h50.76l-.227-28.478c1.275-147.624 41.256-180.2 88.947-182.56l1.334-3.044C326.06 9.138 275.91 24.85 257.91 119.838c-22.483-65.614-66.278-77.37-111.226-76.34l1.332 3.047c47.187 2.335 86.807 34.256 88.89 177.862z"
    transform="matrix(.57327 0 0 1 -.971 -.537)"
  />
</svg>
